<svg width="31" height="30" viewBox="0 0 31 30" fill="none" xmlns="http://www.w3.org/2000/svg">
<circle cx="15.9688" cy="15" r="15" fill="black"/>
<g clip-path="url(#clip0_274_789)">
<path d="M24.2672 9.75345C23.6174 8.98107 22.4178 8.66602 20.1268 8.66602H11.8105C9.46709 8.66602 8.24716 9.0014 7.59985 9.82371C6.96875 10.6255 6.96875 11.8068 6.96875 13.4418V16.558C6.96875 19.7255 7.71755 21.3337 11.8105 21.3337H20.1269C22.1136 21.3337 23.2145 21.0557 23.9267 20.3741C24.6571 19.6751 24.9688 18.5338 24.9688 16.558V13.4418C24.9688 11.7175 24.9199 10.5292 24.2672 9.75345ZM18.5248 15.4301L14.7484 17.4038C14.664 17.4479 14.5717 17.4698 14.4795 17.4698C14.3751 17.4698 14.2709 17.4417 14.1786 17.3859C14.0049 17.2806 13.8988 17.0923 13.8988 16.8892V12.9545C13.8988 12.7517 14.0046 12.5636 14.178 12.4583C14.3514 12.3529 14.5671 12.3457 14.7471 12.4392L18.5235 14.4002C18.7156 14.4999 18.8363 14.6983 18.8366 14.9147C18.8368 15.1313 18.7167 15.3299 18.5248 15.4301Z" fill="white"/>
</g>
<defs>
<clipPath id="clip0_274_789">
<rect width="18" height="18" fill="white" transform="translate(6.96875 6)"/>
</clipPath>
</defs>
</svg>
